<svg xmlns="http://www.w3.org/2000/svg" width="32" height="32" viewBox="0 0 32 32" fill="none">
  <g>
    <path d="M26.0768 22.973L16.7173 13.7562L13.7886 16.4506L23.2416 25.7656L29.1648 31.6008L32 28.8082L26.0768 22.973V22.973Z" fill="#763383"/>
    <path d="M30.0994 11.2582C28.3461 4.62832 22.2571 0 15.2956 0C10.383 0 5.73888 2.34982 2.86945 6.28255C0.999795 8.82961 -0.00571766 11.9081 2.44571e-05 15.0677C2.44571e-05 18.856 1.41621 22.434 3.99203 25.2145C2.59807 23.6659 1.81912 21.7347 1.81912 19.6414C1.81912 17.4361 2.6731 15.4253 4.07354 13.9128C4.27116 11.9867 4.97764 10.148 6.12049 8.58513C8.23968 5.68143 11.6685 3.94755 15.2956 3.94755C20.4343 3.94755 24.9265 7.36345 26.2204 12.2557C26.4612 13.1681 26.5835 14.1165 26.5835 15.0715C26.5835 17.4454 25.836 19.709 24.4198 21.6208L24.5356 21.4605L27.3985 24.2818C29.3186 21.6921 30.5903 18.2891 30.5903 15.0705C30.5903 13.7775 30.4245 12.4966 30.0994 11.2582V11.2582Z" fill="#EB6F25"/>
    <path d="M24.5356 21.4577L24.4198 21.618C23.3636 23.0418 21.9875 24.1974 20.4027 24.9917C18.8178 25.786 17.0684 26.1967 15.2956 26.1907C12.2483 26.1907 9.39094 25.0117 7.24952 22.8712C6.36498 22.0061 5.82685 20.8696 5.82685 19.6433C5.82685 17.1212 7.90899 15.0705 10.4691 15.0705C11.7565 15.0705 12.9569 15.579 13.8414 16.5025L16.7516 13.7896C15.9367 12.9466 14.9605 12.276 13.8813 11.8178C12.802 11.3595 11.6416 11.1229 10.4691 11.1221C9.26774 11.1197 8.07901 11.3667 6.97812 11.8476C5.87723 12.3284 4.88815 13.0326 4.07351 13.9155C2.62681 15.4723 1.82159 17.5181 1.81909 19.6433C1.81909 21.7375 2.59712 23.6686 3.992 25.2173C4.12353 25.359 4.25783 25.5044 4.39491 25.6433C7.29305 28.5433 11.1656 30.1383 15.2956 30.1383C18.5374 30.1383 21.6346 29.1528 24.2512 27.2874C25.4416 26.4447 26.5019 25.4321 27.3985 24.2818L24.5356 21.4568V21.4577Z" fill="#00A19B"/>
  </g>
</svg>