<svg width="16" height="16" viewBox="0 0 16 16" fill="none" xmlns="http://www.w3.org/2000/svg">
<path fill-rule="evenodd" clip-rule="evenodd" d="M8 1.8125C4.58274 1.8125 1.8125 4.58274 1.8125 8C1.8125 11.4173 4.58274 14.1875 8 14.1875C11.4173 14.1875 14.1875 11.4173 14.1875 8C14.1875 4.58274 11.4173 1.8125 8 1.8125ZM0.6875 8C0.6875 3.96142 3.96142 0.6875 8 0.6875C12.0386 0.6875 15.3125 3.96142 15.3125 8C15.3125 12.0386 12.0386 15.3125 8 15.3125C3.96142 15.3125 0.6875 12.0386 0.6875 8Z" fill="#E03137"/>
<path fill-rule="evenodd" clip-rule="evenodd" d="M8 4.4375C8.31066 4.4375 8.5625 4.68934 8.5625 5V8C8.5625 8.31066 8.31066 8.5625 8 8.5625C7.68934 8.5625 7.4375 8.31066 7.4375 8V5C7.4375 4.68934 7.68934 4.4375 8 4.4375Z" fill="#E03137"/>
<path fill-rule="evenodd" clip-rule="evenodd" d="M7.4375 11C7.4375 10.6893 7.68934 10.4375 8 10.4375H8.0075C8.31816 10.4375 8.57 10.6893 8.57 11C8.57 11.3107 8.31816 11.5625 8.0075 11.5625H8C7.68934 11.5625 7.4375 11.3107 7.4375 11Z" fill="#E03137"/>
</svg>
