<svg width="12" height="13" viewBox="0 0 12 13" fill="none" xmlns="http://www.w3.org/2000/svg">
<path fill-rule="evenodd" clip-rule="evenodd" d="M8.1801 0.517742C8.95793 0.418278 9.74487 0.736355 10.5445 1.48872L10.5454 1.48959C11.3477 2.24832 11.7129 3.01798 11.6581 3.8019C11.6052 4.5594 11.166 5.20054 10.6653 5.72958M10.6653 5.72958L5.19469 11.52C5.04046 11.688 4.8328 11.8302 4.63593 11.9355C4.43654 12.0421 4.2059 12.1333 3.98937 12.1718L3.98604 12.1724L1.84014 12.5389C1.31976 12.6287 0.820765 12.4986 0.465296 12.1615C0.110327 11.8249 -0.0465306 11.334 0.0115789 10.811L0.0117494 10.8095L0.259485 8.64011C0.288258 8.42431 0.368401 8.19079 0.462873 7.98821C0.557006 7.78636 0.685441 7.57233 0.83743 7.41053L0.838405 7.4095L6.31174 1.61616C6.81276 1.08691 7.42846 0.613857 8.1801 0.517742M7.03829 2.30327L1.56628 8.09521C1.51163 8.15352 1.43656 8.26635 1.36917 8.41086C1.30299 8.55276 1.26325 8.68404 1.25133 8.76842L1.00546 10.9214L1.00539 10.9221C0.977048 11.1787 1.0568 11.3443 1.15341 11.4359C1.24961 11.5271 1.41728 11.5971 1.67023 11.5535L1.671 11.5533L3.81574 11.187C3.89926 11.1719 4.02794 11.1266 4.16444 11.0536C4.30283 10.9796 4.40693 10.8998 4.45904 10.8427L4.46501 10.8361L9.93841 5.04283C10.3842 4.57194 10.6319 4.14283 10.6606 3.73217C10.6874 3.34786 10.5294 2.85103 9.85885 2.21667C9.19198 1.58934 8.68904 1.46081 8.30694 1.50967C7.89866 1.56187 7.48384 1.83269 7.03829 2.30327Z" fill="white"/>
<path fill-rule="evenodd" clip-rule="evenodd" d="M5.68488 2.43216C5.95773 2.38965 6.21338 2.57638 6.25589 2.84923C6.50731 4.46298 7.81699 5.69805 9.44529 5.86205C9.72005 5.88973 9.92034 6.13489 9.89267 6.40964C9.865 6.68439 9.61983 6.88469 9.34508 6.85702C7.26671 6.64769 5.58973 5.06943 5.26781 3.00317C5.2253 2.73032 5.41203 2.47467 5.68488 2.43216Z" fill="white"/>
</svg>
