<svg width="16" height="13" viewBox="0 0 16 13" fill="none" xmlns="http://www.w3.org/2000/svg">
<path fill-rule="evenodd" clip-rule="evenodd" d="M7.99965 4.61331C6.95579 4.61331 6.11299 5.45612 6.11299 6.49998C6.11299 7.54384 6.95579 8.38665 7.99965 8.38665C9.04351 8.38665 9.88632 7.54384 9.88632 6.49998C9.88632 5.45612 9.04351 4.61331 7.99965 4.61331ZM5.11299 6.49998C5.11299 4.90384 6.40351 3.61331 7.99965 3.61331C9.59579 3.61331 10.8863 4.90384 10.8863 6.49998C10.8863 8.09612 9.59579 9.38665 7.99965 9.38665C6.40351 9.38665 5.11299 8.09612 5.11299 6.49998Z" fill="white"/>
<path fill-rule="evenodd" clip-rule="evenodd" d="M1.50465 4.49796C3.09859 1.99238 5.43433 0.47998 7.99965 0.47998C10.5651 0.47998 12.9009 1.99251 14.4949 4.49828C14.8582 5.06784 15.023 5.79742 15.023 6.49665C15.023 7.19588 14.8582 7.92545 14.4949 8.49501C12.9009 11.0008 10.5651 12.5133 7.99965 12.5133C5.43422 12.5133 3.09839 11.0008 1.50444 8.49501C1.14112 7.92545 0.976318 7.19588 0.976318 6.49665C0.976318 5.79728 1.14118 5.06756 1.50465 4.49796ZM7.99965 1.47998C5.85842 1.47998 3.80758 2.74078 2.3482 5.03501L2.34778 5.03566C2.11139 5.40601 1.97632 5.93614 1.97632 6.49665C1.97632 7.05715 2.11139 7.58729 2.34778 7.95763L2.3482 7.95829C3.80758 10.2525 5.85842 11.5133 7.99965 11.5133C10.1409 11.5133 12.1917 10.2525 13.6511 7.95829L13.6515 7.95763C13.8879 7.58729 14.023 7.05715 14.023 6.49665C14.023 5.93614 13.8879 5.40601 13.6515 5.03566L13.6511 5.03501C12.1917 2.74078 10.1409 1.47998 7.99965 1.47998Z" fill="white"/>
</svg>
