<svg width="14" height="17" viewBox="0 0 14 17" fill="none" xmlns="http://www.w3.org/2000/svg">
<path fill-rule="evenodd" clip-rule="evenodd" d="M8.66663 0.375C9.0118 0.375 9.29163 0.654822 9.29163 1V4.33333C9.29163 4.38859 9.31358 4.44158 9.35265 4.48065C9.39172 4.51972 9.44471 4.54167 9.49996 4.54167H12.8333C13.1785 4.54167 13.4583 4.82149 13.4583 5.16667C13.4583 5.51184 13.1785 5.79167 12.8333 5.79167H9.49996C9.11318 5.79167 8.74225 5.63802 8.46876 5.36453C8.19527 5.09104 8.04163 4.72011 8.04163 4.33333V1C8.04163 0.654822 8.32145 0.375 8.66663 0.375Z" fill="#111827"/>
<path fill-rule="evenodd" clip-rule="evenodd" d="M2.83329 1.625C2.55703 1.625 2.29207 1.73475 2.09672 1.9301C1.90137 2.12545 1.79163 2.3904 1.79163 2.66667V14.3333C1.79163 14.6096 1.90137 14.8746 2.09672 15.0699C2.29207 15.2653 2.55703 15.375 2.83329 15.375H11.1666C11.4429 15.375 11.7078 15.2653 11.9032 15.0699C12.0985 14.8746 12.2083 14.6096 12.2083 14.3333V5.42555L8.40774 1.625H2.83329ZM1.21284 1.04621C1.64261 0.616443 2.22551 0.375 2.83329 0.375H8.66663C8.83239 0.375 8.99136 0.440848 9.10857 0.558058L13.2752 4.72472C13.3924 4.84193 13.4583 5.00091 13.4583 5.16667V14.3333C13.4583 14.9411 13.2169 15.524 12.7871 15.9538C12.3573 16.3836 11.7744 16.625 11.1666 16.625H2.83329C2.2255 16.625 1.64261 16.3836 1.21284 15.9538C0.783069 15.524 0.541626 14.9411 0.541626 14.3333V2.66667C0.541626 2.05888 0.783069 1.47598 1.21284 1.04621Z" fill="#111827"/>
<path fill-rule="evenodd" clip-rule="evenodd" d="M6.99996 7.04167C7.34514 7.04167 7.62496 7.32149 7.62496 7.66667V12.6667C7.62496 13.0118 7.34514 13.2917 6.99996 13.2917C6.65478 13.2917 6.37496 13.0118 6.37496 12.6667V7.66667C6.37496 7.32149 6.65478 7.04167 6.99996 7.04167Z" fill="#111827"/>
<path fill-rule="evenodd" clip-rule="evenodd" d="M4.05802 9.72472C4.3021 9.48065 4.69782 9.48065 4.9419 9.72472L6.99996 11.7828L9.05802 9.72472C9.3021 9.48065 9.69782 9.48065 9.9419 9.72472C10.186 9.9688 10.186 10.3645 9.9419 10.6086L7.4419 13.1086C7.19782 13.3527 6.8021 13.3527 6.55802 13.1086L4.05802 10.6086C3.81394 10.3645 3.81394 9.9688 4.05802 9.72472Z" fill="#111827"/>
</svg>
