<svg width="20" height="20" viewBox="0 0 20 20" fill="none" xmlns="http://www.w3.org/2000/svg">
<path fill-rule="evenodd" clip-rule="evenodd" d="M6.71286 1.7129C7.14263 1.28313 7.72553 1.04169 8.33332 1.04169H11.6666C12.2744 1.04169 12.8573 1.28313 13.2871 1.7129C13.7169 2.14267 13.9583 2.72557 13.9583 3.33335V4.37502H15.8333C16.4411 4.37502 17.024 4.61646 17.4538 5.04623C17.8835 5.476 18.125 6.0589 18.125 6.66669V11.0313C18.1252 11.0409 18.1252 11.0504 18.125 11.06V15C18.125 15.6078 17.8835 16.1907 17.4538 16.6205C17.024 17.0502 16.4411 17.2917 15.8333 17.2917H4.16665C3.55886 17.2917 2.97597 17.0502 2.5462 16.6205C2.11643 16.1907 1.87498 15.6078 1.87498 15V11.06C1.87476 11.0504 1.87476 11.0409 1.87498 11.0313V6.66669C1.87498 6.0589 2.11642 5.476 2.5462 5.04623C2.97597 4.61646 3.55886 4.37502 4.16665 4.37502H6.04165V3.33335C6.04165 2.72557 6.28309 2.14267 6.71286 1.7129ZM7.29165 4.37502H12.7083V3.33335C12.7083 3.05709 12.5986 2.79213 12.4032 2.59678C12.2079 2.40143 11.9429 2.29169 11.6666 2.29169H8.33332C8.05705 2.29169 7.7921 2.40143 7.59675 2.59678C7.4014 2.79213 7.29165 3.05709 7.29165 3.33335V4.37502ZM4.16665 5.62502C3.89038 5.62502 3.62543 5.73477 3.43008 5.93012C3.23473 6.12547 3.12498 6.39042 3.12498 6.66669V10.6196C5.26136 11.4305 7.57769 11.875 9.99998 11.875C12.3498 11.8779 14.6801 11.452 16.875 10.6195V6.66669C16.875 6.39042 16.7652 6.12547 16.5699 5.93012C16.3745 5.73477 16.1096 5.62502 15.8333 5.62502H4.16665ZM9.99998 13.125C12.344 13.1278 14.669 12.7299 16.875 11.9506L9.99998 13.125ZM16.875 11.9506V15C16.875 15.2763 16.7652 15.5412 16.5699 15.7366C16.3745 15.9319 16.1096 16.0417 15.8333 16.0417H4.16665C3.89038 16.0417 3.62543 15.9319 3.43008 15.7366C3.23473 15.5412 3.12498 15.2763 3.12498 15V11.9508C5.27613 12.7111 7.59009 13.125 9.99998 13.125M9.37498 10C9.37498 9.65484 9.6548 9.37502 9.99998 9.37502H10.0083C10.3535 9.37502 10.6333 9.65484 10.6333 10C10.6333 10.3452 10.3535 10.625 10.0083 10.625H9.99998C9.6548 10.625 9.37498 10.3452 9.37498 10Z" fill="#A0AEC0"/>
</svg>
