<svg width="18" height="18" viewBox="0 0 18 18" fill="none" xmlns="http://www.w3.org/2000/svg">
<path fill-rule="evenodd" clip-rule="evenodd" d="M8.80541 1.94C5.01372 1.94 1.93994 5.01378 1.93994 8.80547C1.93994 12.5972 5.01372 15.6709 8.80541 15.6709C12.5971 15.6709 15.6709 12.5972 15.6709 8.80547C15.6709 5.01378 12.5971 1.94 8.80541 1.94ZM0.689941 8.80547C0.689941 4.32342 4.32336 0.690002 8.80541 0.690002C13.2875 0.690002 16.9209 4.32342 16.9209 8.80547C16.9209 13.2875 13.2875 16.9209 8.80541 16.9209C4.32336 16.9209 0.689941 13.2875 0.689941 8.80547Z" fill="#111827"/>
<path fill-rule="evenodd" clip-rule="evenodd" d="M13.5727 13.9629C13.8164 13.7185 14.2121 13.718 14.4565 13.9617L17.3932 16.8908C17.6376 17.1346 17.6381 17.5303 17.3944 17.7747C17.1506 18.0191 16.7549 18.0196 16.5105 17.7758L13.5738 14.8468C13.3294 14.603 13.3289 14.2073 13.5727 13.9629Z" fill="#111827"/>
</svg>
