<svg width="12" height="13" viewBox="0 0 12 13" fill="none" xmlns="http://www.w3.org/2000/svg">
<path fill-rule="evenodd" clip-rule="evenodd" d="M4.6665 1C4.6223 1 4.57991 1.01756 4.54865 1.04882C4.5174 1.08007 4.49984 1.12246 4.49984 1.16667V2.66667H7.49984V1.16667C7.49984 1.12246 7.48228 1.08007 7.45102 1.04882C7.41976 1.01756 7.37737 1 7.33317 1H4.6665ZM1.87657 3.66667L2.49811 11.1251C2.49926 11.139 2.49984 11.1528 2.49984 11.1667C2.49984 11.3877 2.58763 11.5996 2.74391 11.7559C2.9002 11.9122 3.11216 12 3.33317 12H8.6665C8.88752 12 9.09948 11.9122 9.25576 11.7559C9.41204 11.5996 9.49984 11.3877 9.49984 11.1667C9.49984 11.1528 9.50041 11.139 9.50156 11.1251L10.1231 3.66667H1.87657ZM11.1266 3.66667L10.4997 11.1891C10.4939 11.6672 10.3014 12.1245 9.96286 12.463C9.61905 12.8068 9.15273 13 8.6665 13H3.33317C2.84694 13 2.38062 12.8068 2.03681 12.463C1.69828 12.1245 1.50582 11.6672 1.49997 11.1891L0.873104 3.66667H0.666504C0.390362 3.66667 0.166504 3.44281 0.166504 3.16667C0.166504 2.89052 0.390362 2.66667 0.666504 2.66667H3.49984V1.16667C3.49984 0.857247 3.62275 0.560501 3.84155 0.341709C4.06034 0.122916 4.35708 0 4.6665 0H7.33317C7.64259 0 7.93934 0.122916 8.15813 0.341709C8.37692 0.560501 8.49984 0.857247 8.49984 1.16667V2.66667H11.3332C11.6093 2.66667 11.8332 2.89052 11.8332 3.16667C11.8332 3.44281 11.6093 3.66667 11.3332 3.66667H11.1266ZM4.6665 5.33333C4.94265 5.33333 5.1665 5.55719 5.1665 5.83333V9.83333C5.1665 10.1095 4.94265 10.3333 4.6665 10.3333C4.39036 10.3333 4.1665 10.1095 4.1665 9.83333V5.83333C4.1665 5.55719 4.39036 5.33333 4.6665 5.33333ZM7.33317 5.33333C7.60931 5.33333 7.83317 5.55719 7.83317 5.83333V9.83333C7.83317 10.1095 7.60931 10.3333 7.33317 10.3333C7.05703 10.3333 6.83317 10.1095 6.83317 9.83333V5.83333C6.83317 5.55719 7.05703 5.33333 7.33317 5.33333Z" fill="white"/>
</svg>
